<svg width="20" height="20" viewBox="0 0 20 20" fill="none" xmlns="http://www.w3.org/2000/svg">
<g id="Supporting Icons/Bill Payment">
<g id="Group">
<g id="Group_2">
<path id="Vector" d="M15.8318 16.4789V16.4947L15.8324 16.5105C15.8446 16.8311 15.7461 17.0707 15.6061 17.2231C15.4728 17.3683 15.2447 17.4974 14.8633 17.4974H5.13362H5.11827L5.10293 17.498C4.52935 17.5191 4.12812 17.1225 4.16366 16.5287L4.16515 16.5038V16.4789V3.51591V3.50362L4.16479 3.49134C4.15384 3.1204 4.26337 2.88825 4.39311 2.75286C4.52098 2.61941 4.7474 2.4974 5.13362 2.4974H9.73669L15.8318 8.76183V16.4789Z" stroke="#344054" stroke-width="1.66667" stroke-miterlimit="10"/>
<g id="Vector_2">
<mask id="path-2-inside-1_2481_28527" fill="white">
<path d="M9.73438 2.03516V8.36618C9.73438 8.5963 9.92092 8.78285 10.151 8.78285H16.5786"/>
</mask>
<path d="M8.06771 2.03516V8.36618H11.401V2.03516H8.06771ZM10.151 10.4495H16.5786V7.11618H10.151V10.4495ZM8.06771 8.36618C8.06771 9.51678 9.00045 10.4495 10.151 10.4495V7.11618C10.8414 7.11618 11.401 7.67582 11.401 8.36618H8.06771Z" fill="#344054" mask="url(#path-2-inside-1_2481_28527)"/>
</g>
</g>
</g>
</g>
</svg>
