<svg width="20" height="20" viewBox="0 0 20 20" fill="none" xmlns="http://www.w3.org/2000/svg">
<g id="list-ul-alt">
<path id="Icon" d="M6.66642 5.00021L17.4991 5.00081M6.66642 9.99996L17.4992 10.0006M6.66642 14.9997L17.4991 15.0003M2.91664 4.99965H2.92498M2.91664 9.99936H2.92498M2.91664 14.9991H2.92498M3.33328 4.99965C3.33328 5.22976 3.14675 5.41629 2.91664 5.41629C2.68654 5.41629 2.5 5.22976 2.5 4.99965C2.5 4.76954 2.68654 4.58301 2.91664 4.58301C3.14675 4.58301 3.33328 4.76954 3.33328 4.99965ZM3.33328 9.99936C3.33328 10.2295 3.14675 10.416 2.91664 10.416C2.68654 10.416 2.5 10.2295 2.5 9.99936C2.5 9.76925 2.68654 9.58271 2.91664 9.58271C3.14675 9.58271 3.33328 9.76925 3.33328 9.99936ZM3.33328 14.9991C3.33328 15.2292 3.14675 15.4157 2.91664 15.4157C2.68654 15.4157 2.5 15.2292 2.5 14.9991C2.5 14.769 2.68654 14.5824 2.91664 14.5824C3.14675 14.5824 3.33328 14.769 3.33328 14.9991Z" stroke="#344054" stroke-width="1.2" stroke-linecap="round" stroke-linejoin="round"/>
</g>
</svg>
