<svg width="129" height="28" viewBox="0 0 129 28" fill="none" xmlns="http://www.w3.org/2000/svg">
<path d="M120.839 15.0923H119.732C119.689 14.8556 119.61 14.6473 119.494 14.4673C119.378 14.2874 119.236 14.1347 119.067 14.0092C118.899 13.8838 118.711 13.7891 118.503 13.7251C118.297 13.6612 118.078 13.6293 117.846 13.6293C117.427 13.6293 117.052 13.7346 116.72 13.9453C116.391 14.156 116.131 14.465 115.939 14.8722C115.75 15.2794 115.655 15.7765 115.655 16.3636C115.655 16.9555 115.75 17.455 115.939 17.8622C116.131 18.2694 116.392 18.5772 116.724 18.7855C117.055 18.9938 117.428 19.098 117.842 19.098C118.072 19.098 118.29 19.0672 118.496 19.0057C118.704 18.9418 118.892 18.8482 119.06 18.7251C119.228 18.602 119.371 18.4517 119.487 18.2741C119.605 18.0942 119.687 17.8883 119.732 17.6562L120.839 17.6598C120.78 18.0173 120.665 18.3464 120.495 18.647C120.327 18.9453 120.11 19.2034 119.845 19.4212C119.582 19.6366 119.282 19.8035 118.943 19.9219C118.605 20.0402 118.235 20.0994 117.835 20.0994C117.205 20.0994 116.644 19.9503 116.152 19.652C115.66 19.3513 115.271 18.9216 114.987 18.3629C114.705 17.8042 114.565 17.1378 114.565 16.3636C114.565 15.5871 114.707 14.9207 114.991 14.3643C115.275 13.8056 115.663 13.3771 116.156 13.0788C116.648 12.7782 117.208 12.6278 117.835 12.6278C118.221 12.6278 118.581 12.6835 118.915 12.7947C119.251 12.9036 119.553 13.0646 119.82 13.2777C120.088 13.4884 120.309 13.7464 120.484 14.0518C120.66 14.3549 120.778 14.7017 120.839 15.0923ZM122.518 20H121.353L123.97 12.7273H125.238L127.855 20H126.691L124.635 14.0483H124.578L122.518 20ZM122.713 17.152H126.492V18.0753H122.713V17.152Z" fill="#172B4D"/>
<path d="M30.3906 20.3335V7.72739H38.2079V9.3647H32.2926V13.2056H37.6477V14.8368H32.2926V20.3335H30.3906Z" fill="#172B4D"/>
<path d="M42.2396 7.72739V20.3335H40.3991V7.72739H42.2396Z" fill="#172B4D"/>
<path d="M48.7904 20.5243C47.8589 20.5243 47.0566 20.3252 46.3836 19.9272C45.7148 19.5251 45.1977 18.9608 44.8325 18.2345C44.4714 17.5041 44.2908 16.6485 44.2908 15.6677C44.2908 14.6993 44.4714 13.8458 44.8325 13.1071C45.1977 12.3685 45.7066 11.7919 46.359 11.3775C47.0156 10.963 47.7829 10.7558 48.6611 10.7558C49.1946 10.7558 49.7116 10.844 50.2122 11.0205C50.7129 11.1969 51.1622 11.4739 51.5602 11.8514C51.9583 12.229 52.2722 12.7193 52.502 13.3226C52.7318 13.9217 52.8467 14.6501 52.8467 15.5077V16.1602H45.3311V14.7814H51.0432C51.0432 14.2972 50.9447 13.8683 50.7477 13.4949C50.5508 13.1174 50.2738 12.8199 49.9168 12.6024C49.5639 12.3849 49.1494 12.2762 48.6734 12.2762C48.1564 12.2762 47.705 12.4034 47.3192 12.6578C46.9376 12.9081 46.6422 13.2364 46.4329 13.6426C46.2277 14.0448 46.1251 14.4818 46.1251 14.9537V16.0309C46.1251 16.6628 46.2359 17.2004 46.4575 17.6436C46.6832 18.0868 46.9971 18.4253 47.3993 18.6592C47.8014 18.889 48.2713 19.0039 48.8088 19.0039C49.1576 19.0039 49.4757 18.9547 49.7629 18.8562C50.0501 18.7536 50.2984 18.6018 50.5077 18.4007C50.717 18.1996 50.877 17.9513 50.9878 17.6559L52.7298 17.9698C52.5902 18.4828 52.3399 18.9321 51.9788 19.3178C51.6218 19.6995 51.1725 19.997 50.6308 20.2103C50.0932 20.4196 49.4798 20.5243 48.7904 20.5243Z" fill="#172B4D"/>
<path d="M56.1213 10.8789L58.208 14.5598L60.3131 10.8789H62.3259L59.3775 15.6062L62.3505 20.3335H60.3377L58.208 16.8003L56.0844 20.3335H54.0655L57.0077 15.6062L54.1024 10.8789H56.1213Z" fill="#172B4D"/>
<path d="M64.3633 20.3335V7.72739H68.8566C69.8333 7.72739 70.6437 7.89564 71.288 8.23213C71.9364 8.56862 72.4206 9.03437 72.7406 9.62938C73.0607 10.2203 73.2208 10.9035 73.2208 11.6791C73.2208 12.4506 73.0587 13.1297 72.7345 13.7165C72.4144 14.2992 71.9302 14.7526 71.2818 15.0768C70.6376 15.401 69.8271 15.5631 68.8505 15.5631H65.4466V13.9258H68.6781C69.2937 13.9258 69.7943 13.8376 70.18 13.6611C70.5699 13.4847 70.8551 13.2282 71.0356 12.8917C71.2162 12.5552 71.3065 12.151 71.3065 11.6791C71.3065 11.2031 71.2141 10.7907 71.0295 10.4419C70.8489 10.0931 70.5637 9.82635 70.1739 9.64169C69.7882 9.45293 69.2814 9.35855 68.6535 9.35855H66.2653V20.3335H64.3633ZM70.5863 14.646L73.7009 20.3335H71.5342L68.4812 14.646H70.5863Z" fill="#172B4D"/>
<path d="M79.3437 20.5243C78.4122 20.5243 77.61 20.3252 76.937 19.9272C76.2681 19.5251 75.7511 18.9608 75.3859 18.2345C75.0248 17.5041 74.8442 16.6485 74.8442 15.6677C74.8442 14.6993 75.0248 13.8458 75.3859 13.1071C75.7511 12.3685 76.2599 11.7919 76.9124 11.3775C77.569 10.963 78.3363 10.7558 79.2145 10.7558C79.7479 10.7558 80.265 10.844 80.7656 11.0205C81.2663 11.1969 81.7156 11.4739 82.1136 11.8514C82.5117 12.229 82.8256 12.7193 83.0554 13.3226C83.2852 13.9217 83.4001 14.6501 83.4001 15.5077V16.1602H75.8845V14.7814H81.5966C81.5966 14.2972 81.4981 13.8683 81.3011 13.4949C81.1042 13.1174 80.8272 12.8199 80.4702 12.6024C80.1173 12.3849 79.7028 12.2762 79.2268 12.2762C78.7098 12.2762 78.2584 12.4034 77.8726 12.6578C77.491 12.9081 77.1955 13.2364 76.9863 13.6426C76.7811 14.0448 76.6785 14.4818 76.6785 14.9537V16.0309C76.6785 16.6628 76.7893 17.2004 77.0109 17.6436C77.2366 18.0868 77.5505 18.4253 77.9526 18.6592C78.3548 18.889 78.8247 19.0039 79.3622 19.0039C79.711 19.0039 80.029 18.9547 80.3163 18.8562C80.6035 18.7536 80.8518 18.6018 81.0611 18.4007C81.2704 18.1996 81.4304 17.9513 81.5412 17.6559L83.2831 17.9698C83.1436 18.4828 82.8933 18.9321 82.5322 19.3178C82.1752 19.6995 81.7258 19.997 81.1842 20.2103C80.6466 20.4196 80.0331 20.5243 79.3437 20.5243Z" fill="#172B4D"/>
<path d="M85.4421 20.3335V10.8789H87.2087V12.4177H87.3256C87.5226 11.8966 87.8447 11.4903 88.292 11.199C88.7393 10.9035 89.2748 10.7558 89.8986 10.7558C90.5305 10.7558 91.0599 10.9035 91.4866 11.199C91.9175 11.4944 92.2355 11.9007 92.4407 12.4177H92.5392C92.7649 11.913 93.1239 11.5109 93.6164 11.2113C94.1088 10.9076 94.6956 10.7558 95.3768 10.7558C96.2344 10.7558 96.9341 11.0246 97.4757 11.5621C98.0215 12.0997 98.2944 12.9102 98.2944 13.9935V20.3335H96.4539V14.1658C96.4539 13.5257 96.2796 13.062 95.9307 12.7747C95.5819 12.4875 95.1654 12.3439 94.6812 12.3439C94.0821 12.3439 93.6164 12.5285 93.284 12.8978C92.9516 13.2631 92.7854 13.7329 92.7854 14.3074V20.3335H90.9511V14.0489C90.9511 13.5359 90.7911 13.1235 90.471 12.8117C90.1509 12.4998 89.7344 12.3439 89.2215 12.3439C88.8727 12.3439 88.5505 12.4362 88.2551 12.6209C87.9637 12.8014 87.7278 13.0538 87.5472 13.378C87.3708 13.7021 87.2825 14.0776 87.2825 14.5044V20.3335H85.4421Z" fill="#172B4D"/>
<path d="M100.761 20.3335V10.8789H102.602V20.3335H100.761ZM101.691 9.4201C101.37 9.4201 101.096 9.31341 100.866 9.10002C100.64 8.88254 100.527 8.62401 100.527 8.32445C100.527 8.02079 100.64 7.76227 100.866 7.54889C101.096 7.3314 101.37 7.22266 101.691 7.22266C102.011 7.22266 102.284 7.3314 102.509 7.54889C102.739 7.76227 102.854 8.02079 102.854 8.32445C102.854 8.62401 102.739 8.88254 102.509 9.10002C102.284 9.31341 102.011 9.4201 101.691 9.4201Z" fill="#172B4D"/>
<path d="M109.491 10.8789V12.3562H104.327V10.8789H109.491ZM105.712 8.61375H107.552V17.5574C107.552 17.9144 107.605 18.1832 107.712 18.3638C107.819 18.5402 107.956 18.6613 108.124 18.7269C108.297 18.7885 108.483 18.8192 108.685 18.8192C108.832 18.8192 108.962 18.809 109.072 18.7885C109.183 18.768 109.269 18.7515 109.331 18.7392L109.663 20.2596C109.557 20.3006 109.405 20.3417 109.208 20.3827C109.011 20.4278 108.765 20.4525 108.469 20.4566C107.985 20.4648 107.533 20.3786 107.115 20.198C106.696 20.0175 106.358 19.7384 106.099 19.3609C105.841 18.9834 105.712 18.5094 105.712 17.939V8.61375Z" fill="#172B4D"/>
<path d="M12.4833 1.28367C12.8181 1.28367 13.1689 1.37994 13.4718 1.55644L22.7028 6.91576C23.3086 7.26877 23.6912 7.92665 23.6912 8.64871V19.3834C23.6912 20.0894 23.3086 20.7473 22.7028 21.1163L13.4718 26.4596C13.1689 26.6361 12.8181 26.7324 12.4833 26.7324C12.1485 26.7324 11.7978 26.6361 11.4949 26.4596L2.2639 21.1003C1.65807 20.7473 1.27544 20.0894 1.27544 19.3673V8.63266C1.27544 7.92665 1.65807 7.26877 2.2639 6.89971L11.4949 1.5404C11.7978 1.3639 12.1485 1.28367 12.4833 1.28367ZM12.4833 0C11.9094 0 11.3514 0.14441 10.8572 0.433235L1.62618 5.79255C0.621775 6.3702 0 7.46132 0 8.63266V19.3673C0 20.5387 0.621775 21.6298 1.62618 22.2075L10.8572 27.5668C11.3514 27.8556 11.9094 28 12.4833 28C13.0573 28 13.6153 27.8556 14.1095 27.5668L23.3405 22.2075C24.3449 21.6298 24.9667 20.5387 24.9667 19.3673V8.63266C24.9667 7.46132 24.3449 6.3702 23.3405 5.79255L14.1095 0.433235C13.6153 0.14441 13.0573 0 12.4833 0Z" fill="#172B4D"/>
<path d="M9.90057 19.7364L12.1804 21.5335C12.1804 21.5335 12.6587 21.8063 12.6746 22.6728V24.0206C12.6746 24.0206 12.6587 24.4699 12.1326 24.149L7.92364 21.6779C7.92364 21.6779 7.7961 21.6138 7.76421 21.5817C7.4613 21.3891 7.28592 21.1966 7.30186 20.5226L8.72079 19.2711L9.90057 19.7364Z" fill="#98A2B3"/>
<path d="M7.30187 12.8527C7.30187 12.8527 7.22216 11.8739 8.21062 11.2481L16.3096 6.5467C16.3096 6.5467 16.9314 6.11346 16.9633 6.86762V9.6275C16.9633 9.6275 17.043 10.8309 16.0227 11.4246L8.24251 15.9335C8.24251 15.9335 7.33376 16.447 7.30187 15.404V12.8527Z" fill="#172B4D"/>
<path d="M16.9474 14.8585V12.0986C16.9155 11.3444 16.2937 11.7776 16.2937 11.7776L8.19468 16.4791C7.19027 17.1049 7.28594 18.0837 7.28594 18.0837V20.5226C7.25405 21.2126 7.42942 21.3891 7.74828 21.5817C7.79611 21.6137 7.90771 21.6779 7.90771 21.6779L8.22657 21.8705C8.22657 21.8705 7.78016 21.4212 8.6092 20.9398L16.0067 16.6556C17.043 16.0619 16.9474 14.8585 16.9474 14.8585Z" fill="#172B4D"/>
</svg>
