<svg width="20" height="20" viewBox="0 0 20 20" fill="none" xmlns="http://www.w3.org/2000/svg">
<g id="MegaphoneSimple" clip-path="url(#clip0_2481_28539)">
<path id="Vector" d="M17.05 11.3812C17.1798 11.3434 17.2939 11.2644 17.375 11.1563C17.4561 11.0481 17.5 10.9165 17.5 10.7812V7.96875C17.5 7.83352 17.4561 7.70193 17.375 7.59375C17.2939 7.48556 17.1798 7.40661 17.05 7.36875L3.3 3.15C3.20685 3.12283 3.10866 3.11772 3.0132 3.13508C2.91773 3.15244 2.82762 3.19178 2.75 3.25C2.67238 3.30822 2.60938 3.38371 2.56598 3.47049C2.52259 3.55728 2.5 3.65297 2.5 3.75V15C2.5 15.097 2.52259 15.1927 2.56598 15.2795C2.60938 15.3663 2.67238 15.4418 2.75 15.5C2.82762 15.5582 2.91773 15.5976 3.0132 15.6149C3.10866 15.6323 3.20685 15.6272 3.3 15.6L17.05 11.3812Z" stroke="#344054" stroke-width="1.66667" stroke-linecap="round" stroke-linejoin="round"/>
<path id="Vector_2" d="M14.375 12.2004V14.9988C14.375 15.1646 14.3092 15.3236 14.1919 15.4408C14.0747 15.558 13.9158 15.6238 13.75 15.6238H11.25C11.0842 15.6238 10.9253 15.558 10.8081 15.4408C10.6908 15.3236 10.625 15.1646 10.625 14.9988V5.39648" stroke="#344054" stroke-width="1.66667" stroke-linecap="round" stroke-linejoin="round"/>
</g>
<defs>
<clipPath id="clip0_2481_28539">
<rect width="20" height="20" fill="white"/>
</clipPath>
</defs>
</svg>
