<svg width="20" height="20" viewBox="0 0 20 20" fill="none" xmlns="http://www.w3.org/2000/svg">
<g id="Frame 35238">
<g id="Group 48998">
<path id="Vector" d="M16.648 3.42401C16.0211 2.71654 14.9949 3.1123 14.9949 3.1123L3.96948 6.90536C2.89775 7.28012 3.00282 8.2958 3.00282 8.2958C3.09739 9.10485 3.69279 9.41656 3.69279 9.41656L7.78005 11.483L12.9636 6.2189C13.1667 6.01226 13.4994 6.00876 13.7061 6.2119C13.9127 6.41503 13.9162 6.74776 13.7131 6.9544L8.52255 12.2255L10.596 16.3197C11.0723 17.0482 11.7412 16.9992 11.7412 16.9992C12.8515 17.0237 13.1597 15.9625 13.1597 15.9625L16.9282 4.90901C17.1909 3.94586 16.648 3.42401 16.648 3.42401Z" fill="#2684FF"/>
</g>
</g>
</svg>
