<svg width="18" height="18" viewBox="0 0 18 18" fill="none" xmlns="http://www.w3.org/2000/svg">
<rect width="18" height="18" fill="#686868"/>
<g id="Send Money">
<path d="M-4475 -275.001C-4475 -276.105 -4474.1 -277 -4473 -277H11945C11946.1 -277 11947 -276.105 11947 -275V31186C11947 31187.1 11946.1 31188 11945 31188H-4473C-4474.1 31188 -4475 31187.1 -4475 31186V-275.001Z" fill="#404040"/>
<g id="Choose Receiver - Dropdown" clip-path="url(#clip0_124_25702)">
<rect width="1440" height="1024" transform="translate(-33 -177)" fill="#F3F4F6"/>
<g id="Frame 49893">
<g id="Frame 49869">
<g id="Supporting Icons/Bill Payment">
<g id="users" clip-path="url(#clip1_124_25702)">
<path id="Icon" d="M12.388 15.0937V13.7396C12.388 13.0213 12.1027 12.3324 11.5948 11.8245C11.0869 11.3166 10.398 11.0312 9.67969 11.0312H4.26302C3.54473 11.0312 2.85585 11.3166 2.34794 11.8245C1.84003 12.3324 1.55469 13.0213 1.55469 13.7396V15.0937M16.4505 15.0937V13.7396C16.4501 13.1395 16.2503 12.5566 15.8827 12.0823C15.515 11.608 15.0003 11.2693 14.4193 11.1193M11.7109 2.99427C12.2935 3.14343 12.8099 3.48225 13.1786 3.95729C13.5473 4.43234 13.7475 5.0166 13.7475 5.61797C13.7475 6.21933 13.5473 6.8036 13.1786 7.27864C12.8099 7.75369 12.2935 8.0925 11.7109 8.24167M9.67969 5.61458C9.67969 7.11035 8.46713 8.32292 6.97135 8.32292C5.47558 8.32292 4.26302 7.11035 4.26302 5.61458C4.26302 4.11881 5.47558 2.90625 6.97135 2.90625C8.46713 2.90625 9.67969 4.11881 9.67969 5.61458Z" stroke="#344054" stroke-width="1.66667" stroke-linecap="round" stroke-linejoin="round"/>
</g>
</g>
</g>
</g>
</g>
<path d="M-4473 -276H11945V-278H-4473V-276ZM11946 -275V31186H11948V-275H11946ZM11945 31187H-4473V31189H11945V31187ZM-4474 31186V-275.001H-4476V31186H-4474ZM-4473 31187C-4473.55 31187 -4474 31186.6 -4474 31186H-4476C-4476 31187.7 -4474.66 31189 -4473 31189V31187ZM11946 31186C11946 31186.6 11945.6 31187 11945 31187V31189C11946.7 31189 11948 31187.7 11948 31186H11946ZM11945 -276C11945.6 -276 11946 -275.552 11946 -275H11948C11948 -276.657 11946.7 -278 11945 -278V-276ZM-4473 -278C-4474.66 -278 -4476 -276.658 -4476 -275.001H-4474C-4474 -275.553 -4473.55 -276 -4473 -276V-278Z" fill="white" fill-opacity="0.1"/>
</g>
<defs>
<clipPath id="clip0_124_25702">
<rect width="1440" height="1024" fill="white" transform="translate(-33 -177)"/>
</clipPath>
<clipPath id="clip1_124_25702">
<rect width="16.25" height="16.25" fill="white" transform="translate(0.875 0.875)"/>
</clipPath>
</defs>
</svg>
