<svg width="20" height="20" viewBox="0 0 20 20" fill="none" xmlns="http://www.w3.org/2000/svg">
<g id="wallet-alt">
<path id="Icon" d="M13.7507 11.7907H13.7582M15.8333 3.33301H5.16667C4.23325 3.33301 3.76654 3.33301 3.41002 3.51466C3.09641 3.67445 2.84144 3.92942 2.68166 4.24302C2.5 4.59954 2.5 5.06625 2.5 5.99967V13.9997C2.5 14.9331 2.5 15.3998 2.68166 15.7563C2.84144 16.0699 3.09641 16.3249 3.41002 16.4847C3.76654 16.6663 4.23325 16.6663 5.16667 16.6663H14.8333C15.7668 16.6663 16.2335 16.6663 16.59 16.4847C16.9036 16.3249 17.1586 16.0699 17.3183 15.7563C17.5 15.3998 17.5 14.9331 17.5 13.9997V9.33301C17.5 8.39959 17.5 7.93288 17.3183 7.57636C17.1586 7.26275 16.9036 7.00779 16.59 6.848C16.2335 6.66634 15.7668 6.66634 14.8333 6.66634H5.83333M14.1257 11.7907C14.1257 11.9978 13.9578 12.1657 13.7507 12.1657C13.5435 12.1657 13.3757 11.9978 13.3757 11.7907C13.3757 11.5836 13.5435 11.4157 13.7507 11.4157C13.9578 11.4157 14.1257 11.5836 14.1257 11.7907Z" stroke="#344054" stroke-linecap="round" stroke-linejoin="round"/>
</g>
</svg>
